<svg xmlns="http://www.w3.org/2000/svg" version="1.1" xmlns:xlink="http://www.w3.org/1999/xlink" width="512" height="512" x="0" y="0" viewBox="0 0 512 512" style="enable-background:new 0 0 512 512" xml:space="preserve" class=""><g><g data-name="5 Arrow Down"><path d="M256 400.7c-79.95 0-145-65.05-145-145s65.05-145 145-145 145 65.05 145 145-65 145-145 145zm0-260a115 115 0 1 0 115 115 115.13 115.13 0 0 0-115-115zM256 70a15 15 0 0 1-15-15V15a15 15 0 0 1 30 0v40a15 15 0 0 1-15 15zM256 512a15 15 0 0 1-15-15v-40a15 15 0 0 1 30 0v40a15 15 0 0 1-15 15zM497 271h-40a15 15 0 0 1 0-30h40a15 15 0 0 1 0 30zM55 271H15a15 15 0 0 1 0-30h40a15 15 0 0 1 0 30zM426.41 441.41a14.93 14.93 0 0 1-10.6-4.39l-28.29-28.29a15 15 0 0 1 21.22-21.21L437 415.81a15 15 0 0 1-10.61 25.6zM113.87 128.87a15 15 0 0 1-10.61-4.39L75 96.19A15 15 0 0 1 96.19 75l28.29 28.29a15 15 0 0 1-10.61 25.6zM398.13 128.87a15 15 0 0 1-10.61-25.6L415.81 75A15 15 0 0 1 437 96.19l-28.28 28.29a15 15 0 0 1-10.59 4.39zM85.59 441.41A15 15 0 0 1 75 415.81l28.28-28.29a15 15 0 0 1 21.22 21.21L96.19 437a14.93 14.93 0 0 1-10.6 4.41z" fill="#000000" opacity="1" data-original="#000000" class=""></path></g></g></svg>