<svg xmlns="http://www.w3.org/2000/svg" version="1.1" xmlns:xlink="http://www.w3.org/1999/xlink" width="512" height="512" x="0" y="0" viewBox="0 0 20 20" style="enable-background:new 0 0 512 512" xml:space="preserve" class=""><g><path d="M10 0C4.5 0 0 4.5 0 10s4.5 10 10 10 10-4.5 10-10S15.5 0 10 0zm0 2c1.8 0 3.5.6 4.9 1.7L3.7 14.9C2.6 13.5 2 11.8 2 10c0-4.4 3.6-8 8-8zm0 16c-1.8 0-3.5-.6-4.9-1.7L16.3 5.1C17.4 6.5 18 8.2 18 10c0 4.4-3.6 8-8 8z" fill="#dddddd" opacity="1" data-original="#000000" class=""></path></g></svg>