<svg xmlns="http://www.w3.org/2000/svg" version="1.1" xmlns:xlink="http://www.w3.org/1999/xlink" width="512" height="512" x="0" y="0" viewBox="0 0 512 512" style="enable-background:new 0 0 512 512" xml:space="preserve" class=""><g><path d="M60 512c33.09 0 61-26.91 61-60s-27.91-61-61-61-60 27.91-60 61 26.91 60 60 60zM15 300h30c91.125 0 167 75.871 167 167v30c0 8.285 6.715 15 15 15h30c8.285 0 15-6.715 15-15v-30c0-124.266-102.734-227-227-227H15c-8.285 0-15 6.715-15 15v30c0 8.285 6.715 15 15 15zm0 0" fill="#ff0e00" opacity="1" data-original="#000000" class=""></path><path d="M15 180h30c157.402 0 287 129.598 287 287v30c0 8.285 6.715 15 15 15h30c8.285 0 15-6.715 15-15v-30c0-190.54-156.46-347-347-347H15c-8.285 0-15 6.715-15 15v30c0 8.285 6.715 15 15 15zm0 0" fill="#ff0e00" opacity="1" data-original="#000000" class=""></path><path d="M45 0H15C6.715 0 0 6.715 0 15v30c0 8.285 6.715 15 15 15h30c223.676 0 407 183.324 407 407v30c0 8.285 6.715 15 15 15h30c8.285 0 15-6.715 15-15v-30C512 210.187 301.812 0 45 0zm0 0" fill="#ff0e00" opacity="1" data-original="#000000" class=""></path></g></svg>