<svg xmlns="http://www.w3.org/2000/svg" version="1.1" xmlns:xlink="http://www.w3.org/1999/xlink" width="512" height="512" x="0" y="0" viewBox="0 0 256 256" style="enable-background:new 0 0 512 512" xml:space="preserve" class=""><g><path fill="#e6f3fc" d="M20.75 40.42v32.5h214.5v-27.5a5 5 0 0 0-5-5z" opacity="1" data-original="#efefef" class=""></path><path fill="#9ea7ab" d="m235.25 72.92-116.77 38.83H20.75l116.77-38.83z" opacity="1" data-original="#afafaf" class=""></path><path fill="#e6f3fc" d="M118.48 111.75H20.75v27.5a5 5 0 0 0 5 5h209.5v-27.5a5 5 0 0 0-5-5z" opacity="1" data-original="#efefef" class=""></path><path fill="#9ea7ab" d="m235.25 144.25-116.77 38.83H20.75l116.77-38.83z" opacity="1" data-original="#afafaf" class=""></path><path fill="#e6f3fc" d="M20.75 183.08v27.5a5 5 0 0 0 5 5h209.5v-32.5H20.75z" opacity="1" data-original="#efefef" class=""></path><g fill="#f0c020"><path d="M38.667 51.607H53.23V61.73H38.667zM79.693 51.607h14.563V61.73H79.693zM120.718 51.607h14.563V61.73h-14.563zM161.744 51.607h14.563V61.73h-14.563zM202.77 51.607h14.563V61.73H202.77zM38.667 122.938H53.23v10.123H38.667zM79.693 122.938h14.563v10.123H79.693zM120.718 122.938h14.563v10.123h-14.563zM161.744 122.938h14.563v10.123h-14.563zM202.77 122.938h14.563v10.123H202.77zM38.667 194.27H53.23v10.123H38.667zM79.693 194.27h14.563v10.123H79.693zM120.718 194.27h14.563v10.123h-14.563zM161.744 194.27h14.563v10.123h-14.563zM202.77 194.27h14.563v10.123H202.77z" fill="#f0c020" opacity="1" data-original="#f0c020" class=""></path></g><path d="M53.229 64.23a2.5 2.5 0 0 0 2.5-2.5V51.607a2.5 2.5 0 0 0-2.5-2.5H38.667a2.5 2.5 0 0 0-2.5 2.5V61.73a2.5 2.5 0 0 0 2.5 2.5zM41.167 54.107h9.563v5.124h-9.563zM94.256 64.23a2.5 2.5 0 0 0 2.5-2.5V51.607a2.5 2.5 0 0 0-2.5-2.5H79.692a2.5 2.5 0 0 0-2.5 2.5V61.73a2.5 2.5 0 0 0 2.5 2.5zM82.192 54.107h9.563v5.124h-9.563zM135.281 64.23a2.5 2.5 0 0 0 2.5-2.5V51.607a2.5 2.5 0 0 0-2.5-2.5h-14.563a2.5 2.5 0 0 0-2.5 2.5V61.73a2.5 2.5 0 0 0 2.5 2.5zm-12.062-10.123h9.563v5.124h-9.563zM176.308 64.23a2.5 2.5 0 0 0 2.5-2.5V51.607a2.5 2.5 0 0 0-2.5-2.5h-14.563a2.5 2.5 0 0 0-2.5 2.5V61.73a2.5 2.5 0 0 0 2.5 2.5zm-12.064-10.123h9.563v5.124h-9.563zM217.333 64.23a2.5 2.5 0 0 0 2.5-2.5V51.607a2.5 2.5 0 0 0-2.5-2.5H202.77a2.5 2.5 0 0 0-2.5 2.5V61.73a2.5 2.5 0 0 0 2.5 2.5zm-12.062-10.123h9.563v5.124h-9.563zM53.229 120.438H38.667a2.5 2.5 0 0 0-2.5 2.5v10.123a2.5 2.5 0 0 0 2.5 2.5H53.23a2.5 2.5 0 0 0 2.5-2.5v-10.123a2.502 2.502 0 0 0-2.501-2.5zm-2.5 10.124h-9.563v-5.123h9.563zM94.256 120.438H79.692a2.5 2.5 0 0 0-2.5 2.5v10.123a2.5 2.5 0 0 0 2.5 2.5h14.563a2.5 2.5 0 0 0 2.5-2.5v-10.123a2.499 2.499 0 0 0-2.499-2.5zm-2.5 10.124h-9.563v-5.123h9.563zM118.219 133.062a2.5 2.5 0 0 0 2.5 2.5h14.563a2.5 2.5 0 0 0 2.5-2.5v-10.123a2.5 2.5 0 0 0-2.5-2.5h-14.563a2.5 2.5 0 0 0-2.5 2.5zm5-7.624h9.563v5.123h-9.563zM161.744 135.562h14.563a2.5 2.5 0 0 0 2.5-2.5v-10.123a2.5 2.5 0 0 0-2.5-2.5h-14.563a2.5 2.5 0 0 0-2.5 2.5v10.123a2.5 2.5 0 0 0 2.5 2.5zm2.5-10.124h9.563v5.123h-9.563zM202.771 135.562h14.563a2.5 2.5 0 0 0 2.5-2.5v-10.123a2.5 2.5 0 0 0-2.5-2.5h-14.563a2.5 2.5 0 0 0-2.5 2.5v10.123a2.5 2.5 0 0 0 2.5 2.5zm2.5-10.124h9.563v5.123h-9.563zM38.667 191.77a2.5 2.5 0 0 0-2.5 2.5v10.124a2.5 2.5 0 0 0 2.5 2.5H53.23a2.5 2.5 0 0 0 2.5-2.5V194.27a2.5 2.5 0 0 0-2.5-2.5zm12.062 10.123h-9.563v-5.124h9.563zM79.692 191.77a2.5 2.5 0 0 0-2.5 2.5v10.124a2.5 2.5 0 0 0 2.5 2.5h14.563a2.5 2.5 0 0 0 2.5-2.5V194.27a2.5 2.5 0 0 0-2.5-2.5zm12.064 10.123h-9.563v-5.124h9.563zM120.719 191.77a2.5 2.5 0 0 0-2.5 2.5v10.124a2.5 2.5 0 0 0 2.5 2.5h14.563a2.5 2.5 0 0 0 2.5-2.5V194.27a2.5 2.5 0 0 0-2.5-2.5zm12.062 10.123h-9.563v-5.124h9.563zM161.744 191.77a2.5 2.5 0 0 0-2.5 2.5v10.124a2.5 2.5 0 0 0 2.5 2.5h14.563a2.5 2.5 0 0 0 2.5-2.5V194.27a2.5 2.5 0 0 0-2.5-2.5zm12.064 10.123h-9.563v-5.124h9.563zM202.771 191.77a2.5 2.5 0 0 0-2.5 2.5v10.124a2.5 2.5 0 0 0 2.5 2.5h14.563a2.5 2.5 0 0 0 2.5-2.5V194.27a2.5 2.5 0 0 0-2.5-2.5zm12.062 10.123h-9.563v-5.124h9.563z" fill="#000000" opacity="1" data-original="#000000" class=""></path><path d="M237.75 45.42c0-4.136-3.364-7.5-7.5-7.5H20.75a2.5 2.5 0 1 0 0 5h209.5c1.379 0 2.5 1.122 2.5 2.5v25h-212a2.5 2.5 0 1 0 0 5h101.329L19.961 109.378a2.538 2.538 0 0 0-1.711 2.372v27.5c0 4.136 3.364 7.5 7.5 7.5h96.329L19.961 180.708a2.52 2.52 0 0 0-1.711 2.372v27.5c0 4.136 3.364 7.5 7.5 7.5h209.5a2.5 2.5 0 1 0 0-5H25.75a2.503 2.503 0 0 1-2.5-2.5v-25h212a2.5 2.5 0 1 0 0-5H133.921l102.118-33.958a2.517 2.517 0 0 0 1.711-2.372v-27.5c0-4.136-3.364-7.5-7.5-7.5h-96.329c.328-.109 101.886-33.876 102.209-33.998a2.512 2.512 0 0 0 1.62-2.332zM118.076 180.58H36.19l101.733-33.83h81.886zm114.674-63.83v25h-207a2.503 2.503 0 0 1-2.5-2.5v-25h207c1.379 0 2.5 1.122 2.5 2.5zm-114.674-7.5H36.19l101.733-33.83h81.886zM70.695 15.334l10.147 10.833a2.499 2.499 0 1 0 3.648-3.418L74.344 11.916a2.5 2.5 0 1 0-3.649 3.418zM125.5 7.458v17a2.5 2.5 0 1 0 5 0v-17a2.5 2.5 0 1 0-5 0zM175.157 26.167l10.147-10.833a2.5 2.5 0 1 0-3.648-3.418L171.509 22.75a2.5 2.5 0 1 0 3.648 3.417zM171.624 229.717a2.5 2.5 0 0 0-.115 3.534l10.147 10.833a2.499 2.499 0 1 0 3.648-3.418l-10.147-10.833a2.499 2.499 0 0 0-3.533-.116zM125.5 231.542v17a2.5 2.5 0 1 0 5 0v-17a2.5 2.5 0 1 0-5 0zM80.843 229.833l-10.147 10.833a2.5 2.5 0 1 0 3.648 3.418l10.147-10.833a2.5 2.5 0 1 0-3.648-3.418z" fill="#000000" opacity="1" data-original="#000000" class=""></path></g></svg>