<svg xmlns="http://www.w3.org/2000/svg" version="1.1" xmlns:xlink="http://www.w3.org/1999/xlink" width="512" height="512" x="0" y="0" viewBox="0 0 504 384" style="enable-background:new 0 0 512 512" xml:space="preserve" class=""><g><path fill="#d6eae8" d="M4 283.59h496V380H4zM4 143.79h496v96.42H4zM4 4h496v96.41H4z" opacity="1" data-original="#d6eae8" class=""></path><path fill="#e7f2f1" d="M461.85 351.08v-38.57h-38.16v38.57zm-76.31 0v-38.57h-38.16v38.57zm-76.31 0v-38.57h-38.15v38.57zm-76.31 0v-38.57h-38.15v38.57zm-76.3 0v-38.57h-38.16v38.57zm-76.31 0v-38.57H42.15v38.57zM461.85 211.28v-38.56h-38.16v38.56zm-76.31 0v-38.56h-38.16v38.56zm-76.31 0v-38.56h-38.15v38.56zm-76.31 0v-38.56h-38.15v38.56zm-76.3 0v-38.56h-38.16v38.56zm-76.31 0v-38.56H42.15v38.56zM461.85 71.49V32.92h-38.16v38.57zm-76.31 0V32.92h-38.16v38.57zm-76.31 0V32.92h-38.15v38.57zm-76.31 0V32.92h-38.15v38.57zm-76.3 0V32.92h-38.16v38.57zm-76.31 0V32.92H42.15v38.57z" opacity="1" data-original="#e7f2f1" class=""></path><g fill="#ffc05a"><path d="M423.69 32.92h38.16v38.57h-38.16zM423.69 312.51h38.16v38.57h-38.16zM347.38 312.51h38.16v38.57h-38.16zM271.08 312.51h38.15v38.57h-38.15zM194.77 312.51h38.15v38.57h-38.15zM118.46 312.51h38.16v38.57h-38.16zM42.15 312.51h38.16v38.57H42.15zM423.69 172.72h38.16v38.56h-38.16zM347.38 172.72h38.16v38.56h-38.16zM271.08 172.72h38.15v38.56h-38.15zM194.77 172.72h38.15v38.56h-38.15zM118.46 172.72h38.16v38.56h-38.16zM42.15 172.72h38.16v38.56H42.15zM347.38 32.92h38.16v38.57h-38.16zM271.08 32.92h38.15v38.57h-38.15zM194.77 32.92h38.15v38.57h-38.15zM118.46 32.92h38.16v38.57h-38.16zM42.15 32.92h38.16v38.57H42.15z" fill="#ffc05a" opacity="1" data-original="#ffc05a" class=""></path></g><path fill="#c3ddda" d="M477 326.6v38.57h-38.16v-14.09h23.01V326.6zM95.46 326.6v38.57H57.3v-14.09h23.01V326.6zM171.77 326.6v38.57h-38.16v-14.09h23.01V326.6zM248.07 326.6v38.57h-38.15v-14.09h23V326.6zM324.38 326.6v38.57h-38.15v-14.09h23V326.6zM400.69 326.6v38.57h-38.16v-14.09h23.01V326.6zM477.04 186.76v38.56h-38.16v-14.04h22.97v-24.52zM400.73 186.76v38.56h-38.16v-14.04h22.97v-24.52zM324.42 186.76v38.56h-38.15v-14.04h22.96v-24.52zM248.11 186.76v38.56h-38.15v-14.04h22.96v-24.52zM171.81 186.76v38.56h-38.16v-14.04h22.97v-24.52zM95.5 186.76v38.56H57.34v-14.04h22.97v-24.52zM477.04 44.65v38.57h-38.16V71.49h22.97V44.65zM400.73 44.65v38.57h-38.16V71.49h22.97V44.65zM324.42 44.65v38.57h-38.15V71.49h22.96V44.65zM248.11 44.65v38.57h-38.15V71.49h22.96V44.65zM171.81 44.65v38.57h-38.16V71.49h22.97V44.65zM95.5 44.65v38.57H57.34V71.49h22.97V44.65z" opacity="1" data-original="#c3ddda" class=""></path><path fill="#3a322b" d="M500 0H4a4 4 0 0 0-4 4v96.41a4 4 0 0 0 4 4h496a4 4 0 0 0 4-4V4a4 4 0 0 0-4-4zm-4 96.41H8V8h488zM194.769 75.487h38.154a4 4 0 0 0 4-4V32.923a4 4 0 0 0-4-4h-38.154a4 4 0 0 0-4 4v38.564a4 4 0 0 0 4 4zm4-38.564h30.154v30.564h-30.154zm-80.308 38.564h38.154a4 4 0 0 0 4-4V32.923a4 4 0 0 0-4-4h-38.154a4 4 0 0 0-4 4v38.564a4 4 0 0 0 4 4zm4-38.564h30.154v30.564h-30.154zM42.154 75.487h38.154a4 4 0 0 0 4-4V32.923a4 4 0 0 0-4-4H42.154a4 4 0 0 0-4 4v38.564a4 4 0 0 0 4 4zm4-38.564h30.154v30.564H46.154zm377.538 38.564h38.154a4 4 0 0 0 4-4V32.923a4 4 0 0 0-4-4h-38.154a4 4 0 0 0-4 4v38.564a4 4 0 0 0 4 4zm4-38.564h30.154v30.564h-30.154zm-80.307 38.564h38.154a4 4 0 0 0 4-4V32.923a4 4 0 0 0-4-4h-38.154a4 4 0 0 0-4 4v38.564a4 4 0 0 0 4 4zm4-38.564h30.154v30.564h-30.154zm-80.308 38.564h38.154a4 4 0 0 0 4-4V32.923a4 4 0 0 0-4-4h-38.154a4 4 0 0 0-4 4v38.564a4 4 0 0 0 4 4zm4-38.564h30.154v30.564h-30.154zM500 139.795H4a4 4 0 0 0-4 4v96.41a4 4 0 0 0 4 4h496a4 4 0 0 0 4-4v-96.41a4 4 0 0 0-4-4zm-4 96.41H8v-88.41h488zm-301.231-20.923h38.154a4 4 0 0 0 4-4v-38.564a4 4 0 0 0-4-4h-38.154a4 4 0 0 0-4 4v38.564a4 4 0 0 0 4 4zm4-38.564h30.154v30.564h-30.154zm-80.308 38.564h38.154a4 4 0 0 0 4-4v-38.564a4 4 0 0 0-4-4h-38.154a4 4 0 0 0-4 4v38.564a4 4 0 0 0 4 4zm4-38.564h30.154v30.564h-30.154zm-80.307 38.564h38.154a4 4 0 0 0 4-4v-38.564a4 4 0 0 0-4-4H42.154a4 4 0 0 0-4 4v38.564a4 4 0 0 0 4 4zm4-38.564h30.154v30.564H46.154zm377.538 38.564h38.154a4 4 0 0 0 4-4v-38.564a4 4 0 0 0-4-4h-38.154a4 4 0 0 0-4 4v38.564a4 4 0 0 0 4 4zm4-38.564h30.154v30.564h-30.154zm-80.307 38.564h38.154a4 4 0 0 0 4-4v-38.564a4 4 0 0 0-4-4h-38.154a4 4 0 0 0-4 4v38.564a4 4 0 0 0 4 4zm4-38.564h30.154v30.564h-30.154zm-80.308 38.564h38.154a4 4 0 0 0 4-4v-38.564a4 4 0 0 0-4-4h-38.154a4 4 0 0 0-4 4v38.564a4 4 0 0 0 4 4zm4-38.564h30.154v30.564h-30.154zM500 279.59H4a4 4 0 0 0-4 4V380a4 4 0 0 0 4 4h496a4 4 0 0 0 4-4v-96.41a4 4 0 0 0-4-4zM496 376H8v-88.41h488zm-301.231-20.923h38.154a4 4 0 0 0 4-4v-38.564a4 4 0 0 0-4-4h-38.154a4 4 0 0 0-4 4v38.564a4 4 0 0 0 4 4zm4-38.564h30.154v30.564h-30.154zm-80.308 38.564h38.154a4 4 0 0 0 4-4v-38.564a4 4 0 0 0-4-4h-38.154a4 4 0 0 0-4 4v38.564a4 4 0 0 0 4 4zm4-38.564h30.154v30.564h-30.154zm-80.307 38.564h38.154a4 4 0 0 0 4-4v-38.564a4 4 0 0 0-4-4H42.154a4 4 0 0 0-4 4v38.564a4 4 0 0 0 4 4zm4-38.564h30.154v30.564H46.154zm377.538 38.564h38.154a4 4 0 0 0 4-4v-38.564a4 4 0 0 0-4-4h-38.154a4 4 0 0 0-4 4v38.564a4 4 0 0 0 4 4zm4-38.564h30.154v30.564h-30.154zm-80.307 38.564h38.154a4 4 0 0 0 4-4v-38.564a4 4 0 0 0-4-4h-38.154a4 4 0 0 0-4 4v38.564a4 4 0 0 0 4 4zm4-38.564h30.154v30.564h-30.154zm-80.308 38.564h38.154a4 4 0 0 0 4-4v-38.564a4 4 0 0 0-4-4h-38.154a4 4 0 0 0-4 4v38.564a4 4 0 0 0 4 4zm4-38.564h30.154v30.564h-30.154z" opacity="1" data-original="#3a322b" class=""></path></g></svg>